<?xml version="1.0" encoding="UTF-8"?>
<svg version="1.1" xmlns="http://www.w3.org/2000/svg" width="500" height="500">
<path d="M0 0 C3.30568535 0.5719626 3.30568535 0.5719626 6.375 -0.5 C8.06263874 3.56473965 6.52795103 6.90206467 5.125 10.8125 C4.79822266 11.7705957 4.79822266 11.7705957 4.46484375 12.74804688 C3.79641963 14.67709544 3.09511393 16.58967749 2.375 18.5 C2.12766113 19.16249756 1.88032227 19.82499512 1.62548828 20.50756836 C0.95322432 22.20467772 0.17127542 23.85742139 -0.625 25.5 C-2.88877519 26.30849114 -4.27289775 26.5 -6.625 26.5 C-4.645 27.82 -2.665 29.14 -0.625 30.5 C-0.955 31.49 -1.285 32.48 -1.625 33.5 C-2.615 33.5 -3.605 33.5 -4.625 33.5 C-3.305 34.16 -1.985 34.82 -0.625 35.5 C-0.625 36.16 -0.625 36.82 -0.625 37.5 C-3.595 37.5 -6.565 37.5 -9.625 37.5 C-8.42101562 38.04269531 -7.21703125 38.58539063 -5.9765625 39.14453125 C-4.40083611 39.86673918 -2.82532644 40.5894201 -1.25 41.3125 C-0.4559375 41.66892578 0.338125 42.02535156 1.15625 42.39257812 C1.91679687 42.74384766 2.67734375 43.09511719 3.4609375 43.45703125 C4.1626709 43.77647705 4.8644043 44.09592285 5.58740234 44.42504883 C7.375 45.5 7.375 45.5 9.375 48.5 C9.045 49.49 8.715 50.48 8.375 51.5 C9.014375 51.768125 9.65375 52.03625 10.3125 52.3125 C12.375 53.5 12.375 53.5 13.375 56.5 C17.35477076 57.3441938 21.34507218 57.94687265 25.375 58.5 C25.87 57.51 25.87 57.51 26.375 56.5 C27.365 58.48 27.365 58.48 28.375 60.5 C29.035 60.5 29.695 60.5 30.375 60.5 C30.375 61.16 30.375 61.82 30.375 62.5 C30.96667969 62.45359375 31.55835938 62.4071875 32.16796875 62.359375 C37.80070241 62.10208863 40.0549074 62.65991769 44.375 66.5 C47.0854607 66.83592508 47.0854607 66.83592508 49.375 66.5 C49.705 67.82 50.035 69.14 50.375 70.5 C45.38203705 73.4445679 41.03942374 74.13495936 35.375 74.5 C36.035 75.82 36.695 77.14 37.375 78.5 C34.08752584 80.69164944 32.89005175 80.78679386 29.05078125 80.9140625 C28.02275391 80.95273437 26.99472656 80.99140625 25.93554688 81.03125 C24.86369141 81.0621875 23.79183594 81.093125 22.6875 81.125 C21.60404297 81.16367187 20.52058594 81.20234375 19.40429688 81.2421875 C16.72803533 81.33650509 14.05178157 81.42210005 11.375 81.5 C11.045 83.15 10.715 84.8 10.375 86.5 C6.745 86.5 3.115 86.5 -0.625 86.5 C-0.56699219 87.53253906 -0.50898438 88.56507813 -0.44921875 89.62890625 C0.04080509 102.79085499 -2.43028627 114.77836381 -5.625 127.5 C-5.90935913 128.63816162 -5.90935913 128.63816162 -6.19946289 129.79931641 C-6.33989014 130.36054199 -6.48031738 130.92176758 -6.625 131.5 C-7.285 131.5 -7.945 131.5 -8.625 131.5 C-8.74617188 132.12648438 -8.86734375 132.75296875 -8.9921875 133.3984375 C-9.15976562 134.21570313 -9.32734375 135.03296875 -9.5 135.875 C-9.66242188 136.68710937 -9.82484375 137.49921875 -9.9921875 138.3359375 C-10.625 140.5 -10.625 140.5 -12.625 142.5 C-13.625 140.5 -13.625 140.5 -13.18359375 138.7734375 C-12.2170394 134.8396289 -12.66728276 130.81562086 -12.78515625 126.7890625 C-12.61779463 123.3520264 -11.85669488 120.6975765 -10.625 117.5 C-11.615 117.17 -12.605 116.84 -13.625 116.5 C-14.50390625 114.4609375 -14.50390625 114.4609375 -15.1875 111.875 C-15.43371094 110.97523438 -15.67992187 110.07546875 -15.93359375 109.1484375 C-16.16175781 108.27445312 -16.38992188 107.40046875 -16.625 106.5 C-17.83690389 101.89443731 -17.83690389 101.89443731 -19.625 97.5 C-19.86066749 94.71126807 -20.00701217 91.92391743 -20.1484375 89.12890625 C-20.67752374 86.21025839 -21.21638691 85.19190383 -23.625 83.5 C-25.29342534 83.82441604 -26.95980481 84.15939189 -28.625 84.5 C-32.80198853 83.53034195 -36.66073338 82.10713512 -40.625 80.5 C-41.95176508 80.14141484 -43.28335921 79.7981424 -44.625 79.5 C-44.625 78.84 -44.625 78.18 -44.625 77.5 C-46.275 77.5 -47.925 77.5 -49.625 77.5 C-49.625 76.84 -49.625 76.18 -49.625 75.5 C-50.32625 75.231875 -51.0275 74.96375 -51.75 74.6875 C-54.78962822 73.43200139 -57.6844575 71.97027125 -60.625 70.5 C-61.615 70.17 -62.605 69.84 -63.625 69.5 C-63.625 68.84 -63.625 68.18 -63.625 67.5 C-64.285 67.17 -64.945 66.84 -65.625 66.5 C-65.08875 66.438125 -64.5525 66.37625 -64 66.3125 C-61.34428089 65.57493453 -61.34428089 65.57493453 -58.8125 63 C-55.6489031 60.19240889 -52.85454713 59.75377283 -48.625 59.5 C-48.295 58.51 -47.965 57.52 -47.625 56.5 C-45.315 57.82 -43.005 59.14 -40.625 60.5 C-39.17745745 59.05245745 -39.06766439 57.46037087 -38.625 55.5 C-37.14 55.995 -37.14 55.995 -35.625 56.5 C-35.1609375 55.324375 -35.1609375 55.324375 -34.6875 54.125 C-33.625 51.5 -33.625 51.5 -32.625 49.5 C-31.965 49.5 -31.305 49.5 -30.625 49.5 C-30.295 49.83 -29.965 50.16 -29.625 50.5 C-29.295 49.51 -28.965 48.52 -28.625 47.5 C-26.15 47.005 -26.15 47.005 -23.625 46.5 C-23.625 45.84 -23.625 45.18 -23.625 44.5 C-19.48510363 41.41709845 -19.48510363 41.41709845 -16.625 40.5 C-13.40086066 41.02545309 -10.58151454 42.13236062 -7.625 43.5 C-7.625 42.51 -7.625 41.52 -7.625 40.5 C-9.935 39.84 -12.245 39.18 -14.625 38.5 C-14.625 37.84 -14.625 37.18 -14.625 36.5 C-15.615 36.17 -16.605 35.84 -17.625 35.5 C-17.955 34.51 -18.285 33.52 -18.625 32.5 C-17.635 32.5 -16.645 32.5 -15.625 32.5 C-16.8315625 31.88125 -16.8315625 31.88125 -18.0625 31.25 C-20.625 29.5 -20.625 29.5 -21.3125 27.375 C-21.4671875 26.446875 -21.4671875 26.446875 -21.625 25.5 C-22.285 25.17 -22.945 24.84 -23.625 24.5 C-23.625 23.84 -23.625 23.18 -23.625 22.5 C-24.285 22.17 -24.945 21.84 -25.625 21.5 C-25.58375 20.778125 -25.5425 20.05625 -25.5 19.3125 C-25.63724776 16.22442534 -26.41265826 14.3287974 -27.625 11.5 C-29.77282609 4.94347826 -29.77282609 4.94347826 -28.625 1.5 C-23.79204501 -0.91647749 -16.97032779 0.13516535 -11.9375 1.5 C-11.174375 1.83 -10.41125 2.16 -9.625 2.5 C-9.295 1.84 -8.965 1.18 -8.625 0.5 C-5.58698093 -0.62420089 -3.16766714 -0.466145 0 0 Z M-20.625 24.5 C-19.625 26.5 -19.625 26.5 -19.625 26.5 Z M-6.625 41.5 C-6.625 42.49 -6.625 43.48 -6.625 44.5 C-5.635 44.17 -4.645 43.84 -3.625 43.5 C-4.615 42.84 -5.605 42.18 -6.625 41.5 Z M-3.625 48.5 C-0.35954239 50.38391785 2.65611761 50.99287967 6.375 51.5 C6.375 50.84 6.375 50.18 6.375 49.5 C2.96937148 48.72157062 -0.13265756 48.40021879 -3.625 48.5 Z M-33.625 56.5 C-33.625 57.49 -33.625 58.48 -33.625 59.5 C-31.645 60.49 -29.665 61.48 -27.625 62.5 C-28.87046405 58.76360784 -30.25904953 58.31243487 -33.625 56.5 Z M-52.625 61.5 C-52.295 62.16 -51.965 62.82 -51.625 63.5 C-49.60036745 64.15213292 -49.60036745 64.15213292 -47.625 64.5 C-47.625 63.84 -47.625 63.18 -47.625 62.5 C-49.275 62.17 -50.925 61.84 -52.625 61.5 Z M-37.625 61.5 C-37.625 62.16 -37.625 62.82 -37.625 63.5 C-36.635 63.83 -35.645 64.16 -34.625 64.5 C-34.625 63.84 -34.625 63.18 -34.625 62.5 C-35.615 62.17 -36.605 61.84 -37.625 61.5 Z M-60.625 65.5 C-60.625 66.49 -60.625 67.48 -60.625 68.5 C-59.305 68.83 -57.985 69.16 -56.625 69.5 C-56.625 68.18 -56.625 66.86 -56.625 65.5 C-57.945 65.5 -59.265 65.5 -60.625 65.5 Z M-54.625 68.5 C-55.285 69.16 -55.945 69.82 -56.625 70.5 C-54.315 71.16 -52.005 71.82 -49.625 72.5 C-50.98823743 70.4600281 -50.98823743 70.4600281 -52.625 68.5 C-53.285 68.5 -53.945 68.5 -54.625 68.5 Z M27.375 74.5 C28.86 75.49 28.86 75.49 30.375 76.5 C30.705 75.84 31.035 75.18 31.375 74.5 C30.055 74.5 28.735 74.5 27.375 74.5 Z M11.375 75.5 C11.375 75.83 11.375 76.16 11.375 76.5 C16.655 76.5 21.935 76.5 27.375 76.5 C27.375 76.17 27.375 75.84 27.375 75.5 C22.095 75.5 16.815 75.5 11.375 75.5 Z M-12.625 84.5 C-12.625 88.13 -12.625 91.76 -12.625 95.5 C-12.295 95.5 -11.965 95.5 -11.625 95.5 C-11.625 91.87 -11.625 88.24 -11.625 84.5 C-11.955 84.5 -12.285 84.5 -12.625 84.5 Z M-11.625 99.5 C-11.955 100.16 -12.285 100.82 -12.625 101.5 C-11.965 101.5 -11.305 101.5 -10.625 101.5 C-10.955 100.84 -11.285 100.18 -11.625 99.5 Z M-11.625 102.5 C-11.955 103.16 -12.285 103.82 -12.625 104.5 C-11.965 104.5 -11.305 104.5 -10.625 104.5 C-10.955 103.84 -11.285 103.18 -11.625 102.5 Z M-12.625 106.5 C-11.965 107.16 -11.305 107.82 -10.625 108.5 C-10.625 107.84 -10.625 107.18 -10.625 106.5 C-11.285 106.5 -11.945 106.5 -12.625 106.5 Z M-11.625 109.5 C-10.625 113.5 -10.625 113.5 -10.625 113.5 Z " fill="#140E0F" transform="translate(299.625,195.5)"/>
<path d="M0 0 C2.475 0.495 2.475 0.495 5 1 C5 1.66 5 2.32 5 3 C7.46326712 4.6446674 7.46326712 4.6446674 10 6 C10 5.34 10 4.68 10 4 C12.46800047 5.15173355 14.04783565 6.04783565 16 8 C17.98536627 8.70905938 19.98910922 9.36694179 22 10 C24.67574867 10.97693701 27.33656158 11.98973025 30 13 C26.34142468 14.31534494 23.91973519 13.65468309 20.25 12.5625 C19.26515625 12.27503906 18.2803125 11.98757813 17.265625 11.69140625 C16.51796875 11.46324219 15.7703125 11.23507812 15 11 C14.67 11.33 14.34 11.66 14 12 C15.41478135 12.64995297 16.83191487 13.29478722 18.25 13.9375 C19.03890625 14.29714844 19.8278125 14.65679687 20.640625 15.02734375 C25.22912362 16.92899282 25.22912362 16.92899282 30 16 C32.00366211 16.31787109 32.00366211 16.31787109 34.33984375 16.8984375 C40.7267548 18.27957945 47.04746692 18.45000191 53.5625 18.625 C54.74908203 18.66367187 55.93566406 18.70234375 57.15820312 18.7421875 C62.07801582 18.92369345 62.07801582 18.92369345 67 19 C67 18.67 67 18.34 67 18 C67.71027344 17.87882812 68.42054688 17.75765625 69.15234375 17.6328125 C70.07144531 17.46523438 70.99054688 17.29765625 71.9375 17.125 C72.85402344 16.96257812 73.77054687 16.80015625 74.71484375 16.6328125 C75.46894531 16.42398437 76.22304688 16.21515625 77 16 C77.33 15.34 77.66 14.68 78 14 C75.36 14 72.72 14 70 14 C73.22791555 11.8480563 74.28400809 11.79913557 78 12 C78.33 10.68 78.66 9.36 79 8 C79.556875 8.495 80.11375 8.99 80.6875 9.5 C83.38162983 11.24754367 84.85375007 11.26218749 88 11 C88.495 12.98 88.495 12.98 89 15 C84.00703705 17.9445679 79.66442374 18.63495936 74 19 C74.99 20.98 74.99 20.98 76 23 C72.71252584 25.19164944 71.51505175 25.28679386 67.67578125 25.4140625 C66.64775391 25.45273437 65.61972656 25.49140625 64.56054688 25.53125 C62.95276367 25.57765625 62.95276367 25.57765625 61.3125 25.625 C60.22904297 25.66367187 59.14558594 25.70234375 58.02929688 25.7421875 C55.35303533 25.83650509 52.67678157 25.92210005 50 26 C49.505 28.475 49.505 28.475 49 31 C45.37 31 41.74 31 38 31 C38.05800781 32.03253906 38.11601562 33.06507813 38.17578125 34.12890625 C38.66580509 47.29085499 36.19471373 59.27836381 33 72 C32.81042725 72.75877441 32.62085449 73.51754883 32.42553711 74.29931641 C32.28510986 74.86054199 32.14468262 75.42176758 32 76 C31.34 76 30.68 76 30 76 C29.81824219 76.93972656 29.81824219 76.93972656 29.6328125 77.8984375 C29.46523438 78.71570313 29.29765625 79.53296875 29.125 80.375 C28.96257812 81.18710937 28.80015625 81.99921875 28.6328125 82.8359375 C28 85 28 85 26 87 C25 85 25 85 25.44140625 83.2734375 C26.4079606 79.3396289 25.95771724 75.31562086 25.83984375 71.2890625 C26.00720537 67.8520264 26.76830512 65.1975765 28 62 C27.01 61.67 26.02 61.34 25 61 C24.12109375 58.9609375 24.12109375 58.9609375 23.4375 56.375 C23.19128906 55.47523438 22.94507813 54.57546875 22.69140625 53.6484375 C22.46324219 52.77445312 22.23507812 51.90046875 22 51 C20.78809611 46.39443731 20.78809611 46.39443731 19 42 C18.76433251 39.21126807 18.61798783 36.42391743 18.4765625 33.62890625 C17.94747626 30.71025839 17.40861309 29.69190383 15 28 C13.33157466 28.32441604 11.66519519 28.65939189 10 29 C5.82301147 28.03034195 1.96426662 26.60713512 -2 25 C-3.32676508 24.64141484 -4.65835921 24.2981424 -6 24 C-6 23.34 -6 22.68 -6 22 C-7.65 22 -9.3 22 -11 22 C-11 21.34 -11 20.68 -11 20 C-11.70125 19.731875 -12.4025 19.46375 -13.125 19.1875 C-16.16462822 17.93200139 -19.0594575 16.47027125 -22 15 C-22.99 14.67 -23.98 14.34 -25 14 C-25 13.34 -25 12.68 -25 12 C-25.66 11.67 -26.32 11.34 -27 11 C-26.46375 10.938125 -25.9275 10.87625 -25.375 10.8125 C-22.71928089 10.07493453 -22.71928089 10.07493453 -20.1875 7.5 C-17.0239031 4.69240889 -14.22954713 4.25377283 -10 4 C-9.67 3.01 -9.34 2.02 -9 1 C-6.69 2.32 -4.38 3.64 -2 5 C-0.55245745 3.55245745 -0.44266439 1.96037087 0 0 Z M-14 6 C-13.67 6.66 -13.34 7.32 -13 8 C-10.97536745 8.65213292 -10.97536745 8.65213292 -9 9 C-9 8.34 -9 7.68 -9 7 C-10.65 6.67 -12.3 6.34 -14 6 Z M1 6 C1 6.66 1 7.32 1 8 C1.99 8.33 2.98 8.66 4 9 C4 8.34 4 7.68 4 7 C3.01 6.67 2.02 6.34 1 6 Z M-22 10 C-22 10.99 -22 11.98 -22 13 C-20.68 13.33 -19.36 13.66 -18 14 C-18 12.68 -18 11.36 -18 10 C-19.32 10 -20.64 10 -22 10 Z M-16 13 C-16.66 13.66 -17.32 14.32 -18 15 C-15.69 15.66 -13.38 16.32 -11 17 C-12.36323743 14.9600281 -12.36323743 14.9600281 -14 13 C-14.66 13 -15.32 13 -16 13 Z M50 20 C50 20.33 50 20.66 50 21 C55.28 21 60.56 21 66 21 C66 20.67 66 20.34 66 20 C60.72 20 55.44 20 50 20 Z M26 29 C26 32.63 26 36.26 26 40 C26.33 40 26.66 40 27 40 C27 36.37 27 32.74 27 29 C26.67 29 26.34 29 26 29 Z M27 44 C26.67 44.66 26.34 45.32 26 46 C26.66 46 27.32 46 28 46 C27.67 45.34 27.34 44.68 27 44 Z M27 47 C26.67 47.66 26.34 48.32 26 49 C26.66 49 27.32 49 28 49 C27.67 48.34 27.34 47.68 27 47 Z M26 51 C26.66 51.66 27.32 52.32 28 53 C28 52.34 28 51.68 28 51 C27.34 51 26.68 51 26 51 Z M27 54 C28 58 28 58 28 58 Z " fill="#221A1C" transform="translate(261,251)"/>
<path d="M0 0 C6.42158459 0.62956712 9.90015227 2.31099204 14.875 6.3125 C17.95088728 8.39948568 17.95088728 8.39948568 21.5625 7.3125 C22.696875 6.879375 23.83125 6.44625 25 6 C29.50446851 4.45899761 32.63848485 5.5750303 37.01171875 7.015625 C39 8 39 8 41 11 C41.79900269 14.00470026 42.12673776 16.89216979 42 20 C40.4375 22.625 40.4375 22.625 38 25 C37.01440763 26.18217227 36.03562487 27.37004388 35.0625 28.5625 C29.72528774 34.67915662 23.66815463 38.31173889 16 41 C13.15625 41.140625 13.15625 41.140625 11 41 C10.67 40.01 10.34 39.02 10 38 C11.63412443 36.29159719 12.86906094 35.06546953 15 34 C14.8453125 32.081875 14.8453125 32.081875 14.6875 30.125 C14.60048828 29.04605469 14.60048828 29.04605469 14.51171875 27.9453125 C14.12606964 25.60480784 14.12606964 25.60480784 11 24 C11 23.34 11 22.68 11 22 C7.55970689 20.85323563 5.91730073 21.02423944 2.375 22.0625 C-1.47999381 24.275552 -2.45410769 25.90793212 -4 30 C-3.34 30.33 -2.68 30.66 -2 31 C-2.103125 31.7425 -2.20625 32.485 -2.3125 33.25 C-2.2745414 36.25072867 -2.2745414 36.25072867 0.5 38.3125 C1.325 38.869375 2.15 39.42625 3 40 C2.67 41.32 2.34 42.64 2 44 C-6.6902549 46.38594052 -14.96442271 45.01778864 -23 41 C-26.41496097 38.32784127 -29.43996024 35.51035755 -32 32 C-32 31.01 -32 30.02 -32 29 C-32.66 28.67 -33.32 28.34 -34 28 C-34.33 27.01 -34.66 26.02 -35 25 C-35.66 24.34 -36.32 23.68 -37 23 C-37 22.34 -37 21.68 -37 21 C-37.66 20.34 -38.32 19.68 -39 19 C-38.625 16.875 -38.625 16.875 -38 15 C-37.34 15 -36.68 15 -36 15 C-35.29875 15.7425 -34.5975 16.485 -33.875 17.25 C-28.05811775 22.81397433 -23.61198625 24.24181434 -15.5 24.25 C-13.33266859 24.18625496 -11.16550236 24.10949169 -9 24 C-8.67 23.34 -8.34 22.68 -8 22 C-7.34 22 -6.68 22 -6 22 C-4.64185436 21.20774838 -3.31121678 20.36771699 -2 19.5 C1.77777778 17 1.77777778 17 4 17 C4 16.01 4 15.02 4 14 C1.03 14.99 -1.94 15.98 -5 17 C-5 17.66 -5 18.32 -5 19 C-5.99 19 -6.98 19 -8 19 C-8.33 16.36 -8.66 13.72 -9 11 C-8.34 11 -7.68 11 -7 11 C-7 10.34 -7 9.68 -7 9 C-7.66 8.67 -8.32 8.34 -9 8 C-8.43410156 7.59007812 -7.86820312 7.18015625 -7.28515625 6.7578125 C-6.18494141 5.94957031 -6.18494141 5.94957031 -5.0625 5.125 C-4.33160156 4.59132812 -3.60070312 4.05765625 -2.84765625 3.5078125 C-0.88901765 2.11987896 -0.88901765 2.11987896 0 0 Z M8 11 C8 11.66 8 12.32 8 13 C8.66 12.67 9.32 12.34 10 12 C9.34 11.67 8.68 11.34 8 11 Z M4 13 C4.33 13.66 4.66 14.32 5 15 C5.66 15 6.32 15 7 15 C7 14.34 7 13.68 7 13 C6.01 13 5.02 13 4 13 Z " fill="#130D0F" transform="translate(281,145)"/>
<path d="M0 0 C4.05819183 0.65503282 7.53971282 1.94559121 11.3125 3.5625 C12.38113281 4.01753906 13.44976562 4.47257813 14.55078125 4.94140625 C15.76314453 5.46541016 15.76314453 5.46541016 17 6 C17 6.99 17 7.98 17 9 C24.28871788 10.44740497 31.16588048 11.19709285 38.6015625 10.97265625 C41 11 41 11 43 12 C43.33 11.34 43.66 10.68 44 10 C44.66 11.32 45.32 12.64 46 14 C46.66 14 47.32 14 48 14 C48 14.66 48 15.32 48 16 C50.97 16 53.94 16 57 16 C57 17.65 57 19.3 57 21 C55.35 21.33 53.7 21.66 52 22 C53.65 22.33 55.3 22.66 57 23 C56.505 24.485 56.505 24.485 56 26 C48.14448094 27.96360021 40.6360509 28.30409414 32.5625 28.25 C31.41201172 28.25773437 30.26152344 28.26546875 29.07617188 28.2734375 C22.58317804 28.2587225 16.5621942 27.76210334 10.22241211 26.33105469 C7.83397713 25.80392319 7.83397713 25.80392319 5 27 C2.1171875 26.07421875 2.1171875 26.07421875 -1.125 24.6875 C-2.20007813 24.23761719 -3.27515625 23.78773438 -4.3828125 23.32421875 C-7 22 -7 22 -8 20 C-3.99799622 18.39919849 -0.95443764 19.70720308 3 21 C2.30132812 20.66226562 1.60265625 20.32453125 0.8828125 19.9765625 C-0.02726562 19.53054688 -0.93734375 19.08453125 -1.875 18.625 C-2.77992188 18.18414062 -3.68484375 17.74328125 -4.6171875 17.2890625 C-7 16 -7 16 -9 14 C-9.804375 13.690625 -10.60875 13.38125 -11.4375 13.0625 C-14.00499471 11.99792902 -15.33020953 11.19709272 -17 9 C-17 8.01 -17 7.02 -17 6 C-14.66666667 6 -12.33333333 6 -10 6 C-10 4.68 -10 3.36 -10 2 C-3.25 2.875 -3.25 2.875 -1 4 C-0.67 2.68 -0.34 1.36 0 0 Z " fill="#0B0708" transform="translate(282,242)"/>
<path d="M0 0 C2.475 0.495 2.475 0.495 5 1 C5 1.66 5 2.32 5 3 C7.46326712 4.6446674 7.46326712 4.6446674 10 6 C10 5.34 10 4.68 10 4 C12.46800047 5.15173355 14.04783565 6.04783565 16 8 C17.98536627 8.70905938 19.98910922 9.36694179 22 10 C24.67574867 10.97693701 27.33656158 11.98973025 30 13 C26.34142468 14.31534494 23.91973519 13.65468309 20.25 12.5625 C19.26515625 12.27503906 18.2803125 11.98757813 17.265625 11.69140625 C16.51796875 11.46324219 15.7703125 11.23507812 15 11 C14.67 11.33 14.34 11.66 14 12 C15.41478135 12.64995297 16.83191487 13.29478722 18.25 13.9375 C19.03890625 14.29714844 19.8278125 14.65679687 20.640625 15.02734375 C25.22912362 16.92899282 25.22912362 16.92899282 30 16 C32.00146484 16.31787109 32.00146484 16.31787109 34.3359375 16.8984375 C40.74384819 18.28437238 47.08862678 18.45011376 53.625 18.625 C55.41744141 18.68300781 55.41744141 18.68300781 57.24609375 18.7421875 C60.16391736 18.83555786 63.08174921 18.92133578 66 19 C66 19.33 66 19.66 66 20 C60.72 20.33 55.44 20.66 50 21 C50 21.66 50 22.32 50 23 C41.19809636 22.69856494 33.16277932 21.24805192 24.703125 18.98828125 C20.48997925 17.86388687 16.26281524 16.91346041 12 16 C13.32 18.64 14.64 21.28 16 24 C15.34 24.66 14.68 25.32 14 26 C14 26.33 14 26.66 14 27 C8.44439627 28.0912793 5.0499801 28.08408211 -0.140625 25.7890625 C-2.07073096 24.96998392 -3.95769506 24.46087412 -6 24 C-6 23.34 -6 22.68 -6 22 C-7.65 22 -9.3 22 -11 22 C-11 21.34 -11 20.68 -11 20 C-11.70125 19.731875 -12.4025 19.46375 -13.125 19.1875 C-16.16462822 17.93200139 -19.0594575 16.47027125 -22 15 C-22.99 14.67 -23.98 14.34 -25 14 C-25 13.34 -25 12.68 -25 12 C-25.66 11.67 -26.32 11.34 -27 11 C-26.46375 10.938125 -25.9275 10.87625 -25.375 10.8125 C-22.71928089 10.07493453 -22.71928089 10.07493453 -20.1875 7.5 C-17.0239031 4.69240889 -14.22954713 4.25377283 -10 4 C-9.67 3.01 -9.34 2.02 -9 1 C-6.69 2.32 -4.38 3.64 -2 5 C-0.55245745 3.55245745 -0.44266439 1.96037087 0 0 Z M-14 6 C-13.67 6.66 -13.34 7.32 -13 8 C-10.97536745 8.65213292 -10.97536745 8.65213292 -9 9 C-9 8.34 -9 7.68 -9 7 C-10.65 6.67 -12.3 6.34 -14 6 Z M1 6 C1 6.66 1 7.32 1 8 C1.99 8.33 2.98 8.66 4 9 C4 8.34 4 7.68 4 7 C3.01 6.67 2.02 6.34 1 6 Z M-22 10 C-22 10.99 -22 11.98 -22 13 C-20.68 13.33 -19.36 13.66 -18 14 C-18 12.68 -18 11.36 -18 10 C-19.32 10 -20.64 10 -22 10 Z M-16 13 C-16.66 13.66 -17.32 14.32 -18 15 C-15.69 15.66 -13.38 16.32 -11 17 C-12.36323743 14.9600281 -12.36323743 14.9600281 -14 13 C-14.66 13 -15.32 13 -16 13 Z " fill="#110C0D" transform="translate(261,251)"/>
<path d="M0 0 C0.99 0.33 1.98 0.66 3 1 C2.67 1.99 2.34 2.98 2 4 C2.99 4.99 3.98 5.98 5 7 C4.39671875 7.06316406 3.7934375 7.12632812 3.171875 7.19140625 C-1.69719163 7.84292753 -1.69719163 7.84292753 -5.48828125 10.69140625 C-6.71495735 12.82028245 -6.71495735 12.82028245 -8 16 C-7.34 16.33 -6.68 16.66 -6 17 C-6.103125 17.7425 -6.20625 18.485 -6.3125 19.25 C-6.2745414 22.25072867 -6.2745414 22.25072867 -3.5 24.3125 C-2.675 24.869375 -1.85 25.42625 -1 26 C-1.33 27.32 -1.66 28.64 -2 30 C-10.6902549 32.38594052 -18.96442271 31.01778864 -27 27 C-30.41496097 24.32784127 -33.43996024 21.51035755 -36 18 C-36 17.01 -36 16.02 -36 15 C-36.66 14.67 -37.32 14.34 -38 14 C-38.33 13.01 -38.66 12.02 -39 11 C-39.66 10.34 -40.32 9.68 -41 9 C-41 8.34 -41 7.68 -41 7 C-41.66 6.34 -42.32 5.68 -43 5 C-42.625 2.875 -42.625 2.875 -42 1 C-41.34 1 -40.68 1 -40 1 C-39.29875 1.7425 -38.5975 2.485 -37.875 3.25 C-32.05811775 8.81397433 -27.61198625 10.24181434 -19.5 10.25 C-17.33266859 10.18625496 -15.16550236 10.10949169 -13 10 C-12.67 9.34 -12.34 8.68 -12 8 C-11.34 8 -10.68 8 -10 8 C-8.64185436 7.20774838 -7.31121678 6.36771699 -6 5.5 C-2.22222222 3 -2.22222222 3 0 3 C0 2.01 0 1.02 0 0 Z " fill="#1B1516" transform="translate(285,159)"/>
<path d="M0 0 C0.928125 0.474375 1.85625 0.94875 2.8125 1.4375 C5.91196237 3.04488875 5.91196237 3.04488875 9 4 C9.66 4.66 10.32 5.32 11 6 C10.34 6 9.68 6 9 6 C12.00617269 9.00617269 14.82381598 8.59585316 19 9 C19 8.34 19 7.68 19 7 C19.99 7.33 20.98 7.66 22 8 C21.67 8.99 21.34 9.98 21 11 C20.01 11 19.02 11 18 11 C19.32 11.66 20.64 12.32 22 13 C22 13.66 22 14.32 22 15 C19.03 15 16.06 15 13 15 C14.20398438 15.54269531 15.40796875 16.08539063 16.6484375 16.64453125 C18.22416389 17.36673918 19.79967356 18.0894201 21.375 18.8125 C22.1690625 19.16892578 22.963125 19.52535156 23.78125 19.89257812 C24.54179687 20.24384766 25.30234375 20.59511719 26.0859375 20.95703125 C26.7876709 21.27647705 27.4894043 21.59592285 28.21240234 21.92504883 C30 23 30 23 32 26 C31.505 27.485 31.505 27.485 31 29 C31.639375 29.268125 32.27875 29.53625 32.9375 29.8125 C35 31 35 31 36 34 C36.66 34.66 37.32 35.32 38 36 C37.319375 35.835 36.63875 35.67 35.9375 35.5 C32.94192028 34.8964015 32.94192028 34.8964015 29.625 35.0625 C25.63460371 34.99370006 22.76871119 34.23059957 19 33 C20.485 32.505 20.485 32.505 22 32 C22 31.34 22 30.68 22 30 C21.175 29.9175 20.35 29.835 19.5 29.75 C15.83868694 28.96543292 13.103977 27.6928634 9.83203125 25.9375 C7.85621068 24.86837089 7.85621068 24.86837089 5 24 C5 25.65 5 27.3 5 29 C1.7 28.01 -1.6 27.02 -5 26 C-5 27.32 -5 28.64 -5 30 C-4.01 30.33 -3.02 30.66 -2 31 C-5.20062687 32.60031344 -7.72271806 31.03173691 -11 30 C-10.505 28.515 -10.505 28.515 -10 27 C-9.34 27 -8.68 27 -8 27 C-7.67 27.33 -7.34 27.66 -7 28 C-6.67 27.01 -6.34 26.02 -6 25 C-4.35 24.67 -2.7 24.34 -1 24 C-1 23.34 -1 22.68 -1 22 C3.13989637 18.91709845 3.13989637 18.91709845 6 18 C9.22413934 18.52545309 12.04348546 19.63236062 15 21 C15 20.01 15 19.02 15 18 C12.69 17.34 10.38 16.68 8 16 C8 15.34 8 14.68 8 14 C7.01 13.67 6.02 13.34 5 13 C4.67 12.01 4.34 11.02 4 10 C4.99 10 5.98 10 7 10 C6.195625 9.5875 5.39125 9.175 4.5625 8.75 C2 7 2 7 1.3125 4.875 C1.209375 4.25625 1.10625 3.6375 1 3 C0.34 2.67 -0.32 2.34 -1 2 C-0.67 1.34 -0.34 0.68 0 0 Z M16 19 C16 19.99 16 20.98 16 22 C16.99 21.67 17.98 21.34 19 21 C18.01 20.34 17.02 19.68 16 19 Z M19 26 C22.26545761 27.88391785 25.28111761 28.49287967 29 29 C29 28.34 29 27.68 29 27 C25.59437148 26.22157062 22.49234244 25.90021879 19 26 Z " fill="#796167" transform="translate(277,218)"/>
<path d="M0 0 C7.42075866 0.72752536 11.35553016 3.32315356 17 8 C16.67 8.99 16.34 9.98 16 11 C14 11.66666667 12 12.33333333 10 13 C9.67 13.33 9.34 13.66 9 14 C8.01 14.495 8.01 14.495 7 15 C7 14.34 7 13.68 7 13 C3.04 14.32 -0.92 15.64 -5 17 C-5 17.66 -5 18.32 -5 19 C-5.99 19 -6.98 19 -8 19 C-8.33 16.36 -8.66 13.72 -9 11 C-8.34 11 -7.68 11 -7 11 C-7 10.34 -7 9.68 -7 9 C-7.66 8.67 -8.32 8.34 -9 8 C-8.43410156 7.59007812 -7.86820312 7.18015625 -7.28515625 6.7578125 C-6.18494141 5.94957031 -6.18494141 5.94957031 -5.0625 5.125 C-4.33160156 4.59132812 -3.60070312 4.05765625 -2.84765625 3.5078125 C-0.88901765 2.11987896 -0.88901765 2.11987896 0 0 Z " fill="#261C1D" transform="translate(281,145)"/>
<path d="M0 0 C1.65 0.33 3.3 0.66 5 1 C5 1.66 5 2.32 5 3 C7.46326712 4.6446674 7.46326712 4.6446674 10 6 C10 5.34 10 4.68 10 4 C12.46800047 5.15173355 14.04783565 6.04783565 16 8 C17.98536627 8.70905938 19.98910922 9.36694179 22 10 C24.67574867 10.97693701 27.33656158 11.98973025 30 13 C26.37998972 14.30014454 24.21373865 13.63877246 20.625 12.4375 C15.9470074 11.04842896 13.55473711 11.00035932 9 13 C7 12.6875 7 12.6875 5 12 C3.00211562 11.65421232 1.00240549 11.31856451 -1 11 C-1.33 10.01 -1.66 9.02 -2 8 C-3.01111093 11.04913228 -3.01111093 11.04913228 -2 14 C-4.375 13.3125 -4.375 13.3125 -7 12 C-7.33 11.154375 -7.66 10.30875 -8 9.4375 C-8.33 8.633125 -8.66 7.82875 -9 7 C-11.54775306 6.10613836 -11.54775306 6.10613836 -14 6 C-13.67 5.34 -13.34 4.68 -13 4 C-12.01 4 -11.02 4 -10 4 C-9.67 3.01 -9.34 2.02 -9 1 C-5.535 2.98 -5.535 2.98 -2 5 C-0.55245745 3.55245745 -0.44266439 1.96037087 0 0 Z M1 6 C1 6.66 1 7.32 1 8 C1.99 8.33 2.98 8.66 4 9 C4 8.34 4 7.68 4 7 C3.01 6.67 2.02 6.34 1 6 Z " fill="#3C2C2D" transform="translate(261,251)"/>
<path d="M0 0 C0.928125 0.474375 1.85625 0.94875 2.8125 1.4375 C5.91196237 3.04488875 5.91196237 3.04488875 9 4 C9.66 4.66 10.32 5.32 11 6 C10.34 6 9.68 6 9 6 C12.00617269 9.00617269 14.82381598 8.59585316 19 9 C19 8.34 19 7.68 19 7 C19.99 7.33 20.98 7.66 22 8 C21.67 8.99 21.34 9.98 21 11 C20.01 11 19.02 11 18 11 C19.32 11.66 20.64 12.32 22 13 C22 13.66 22 14.32 22 15 C19.03 15 16.06 15 13 15 C17.455 16.98 17.455 16.98 22 19 C21.67 19.66 21.34 20.32 21 21 C21.99 21.99 22.98 22.98 24 24 C21.69 23.67 19.38 23.34 17 23 C17 22.01 17 21.02 17 20 C16.67 20.66 16.34 21.32 16 22 C15.34 21.67 14.68 21.34 14 21 C14.33 20.01 14.66 19.02 15 18 C12.69 17.34 10.38 16.68 8 16 C8 15.34 8 14.68 8 14 C7.01 13.67 6.02 13.34 5 13 C4.67 12.01 4.34 11.02 4 10 C4.99 10 5.98 10 7 10 C6.195625 9.5875 5.39125 9.175 4.5625 8.75 C2 7 2 7 1.3125 4.875 C1.209375 4.25625 1.10625 3.6375 1 3 C0.34 2.67 -0.32 2.34 -1 2 C-0.67 1.34 -0.34 0.68 0 0 Z " fill="#8F6E77" transform="translate(277,218)"/>
<path d="M0 0 C0.99 0.66 1.98 1.32 3 2 C5.394792 2.58409561 7.53524626 3 10 3 C10.495 4.98 10.495 4.98 11 7 C6.00703705 9.9445679 1.66442374 10.63495936 -4 11 C-3.34 12.32 -2.68 13.64 -2 15 C-5.7367843 17.49118953 -7.74451819 17.2065226 -12.1875 17.125 C-13.45980469 17.10695313 -14.73210937 17.08890625 -16.04296875 17.0703125 C-17.01878906 17.04710937 -17.99460937 17.02390625 -19 17 C-18.67 16.34 -18.34 15.68 -18 15 C-20.97 14.67 -23.94 14.34 -27 14 C-27 13.67 -27 13.34 -27 13 C-21.06 12.67 -15.12 12.34 -9 12 C-9.66 11.34 -10.32 10.68 -11 10 C-10.28972656 9.87882812 -9.57945312 9.75765625 -8.84765625 9.6328125 C-7.92855469 9.46523438 -7.00945312 9.29765625 -6.0625 9.125 C-4.68771484 8.88136719 -4.68771484 8.88136719 -3.28515625 8.6328125 C-2.53105469 8.42398437 -1.77695312 8.21515625 -1 8 C-0.67 7.34 -0.34 6.68 0 6 C-2.64 6 -5.28 6 -8 6 C-4.77208445 3.8480563 -3.71599191 3.79913557 0 4 C0 2.68 0 1.36 0 0 Z " fill="#6F5861" transform="translate(339,259)"/>
<path d="M0 0 C0.99 0 1.98 0 3 0 C2.98839844 0.85464844 2.97679687 1.70929688 2.96484375 2.58984375 C2.95582031 3.69457031 2.94679688 4.79929687 2.9375 5.9375 C2.92589844 7.03964844 2.91429687 8.14179688 2.90234375 9.27734375 C2.68737429 11.91447634 2.68737429 11.91447634 4 13 C4.08767112 15.07262076 4.10695873 17.14820294 4.09765625 19.22265625 C4.09443359 20.48271484 4.09121094 21.74277344 4.08789062 23.04101562 C4.07953403 24.38151109 4.07106907 25.72200588 4.0625 27.0625 C4.0574866 28.40689942 4.05292342 29.7513006 4.04882812 31.09570312 C4.03699488 34.39717941 4.02050971 37.69856803 4 41 C3.34 40.67 2.68 40.34 2 40 C2.495 37.03 2.495 37.03 3 34 C2.01 33.67 1.02 33.34 0 33 C-0.87890625 30.9609375 -0.87890625 30.9609375 -1.5625 28.375 C-1.80871094 27.47523438 -2.05492187 26.57546875 -2.30859375 25.6484375 C-2.65083984 24.33746094 -2.65083984 24.33746094 -3 23 C-4.21190389 18.39443731 -4.21190389 18.39443731 -6 14 C-5.72057545 12.32345271 -5.39171753 10.65391846 -5 9 C-4.34 9.33 -3.68 9.66 -3 10 C-2.34 12.31 -1.68 14.62 -1 17 C-0.67 11.39 -0.34 5.78 0 0 Z M1 1 C1 4.63 1 8.26 1 12 C1.33 12 1.66 12 2 12 C2 8.37 2 4.74 2 1 C1.67 1 1.34 1 1 1 Z M2 16 C1.67 16.66 1.34 17.32 1 18 C1.66 18 2.32 18 3 18 C2.67 17.34 2.34 16.68 2 16 Z M2 19 C1.67 19.66 1.34 20.32 1 21 C1.66 21 2.32 21 3 21 C2.67 20.34 2.34 19.68 2 19 Z M1 23 C1.66 23.66 2.32 24.32 3 25 C3 24.34 3 23.68 3 23 C2.34 23 1.68 23 1 23 Z M2 26 C3 30 3 30 3 30 Z " fill="#8D757C" transform="translate(286,279)"/>
<path d="M0 0 C0.89203125 0.37253906 1.7840625 0.74507813 2.703125 1.12890625 C4.45882813 1.83853516 4.45882813 1.83853516 6.25 2.5625 C7.41015625 3.03816406 8.5703125 3.51382812 9.765625 4.00390625 C12.77050882 5.23761977 12.77050882 5.23761977 14.92724609 4.50610352 C17.43922072 3.89275565 18.90230744 4.26817659 21.3984375 4.8984375 C27.78373317 6.29368206 34.10908999 6.45066127 40.625 6.625 C42.41744141 6.68300781 42.41744141 6.68300781 44.24609375 6.7421875 C47.16391736 6.83555786 50.08174921 6.92133578 53 7 C53 7.33 53 7.66 53 8 C45.08 8.495 45.08 8.495 37 9 C37 9.66 37 10.32 37 11 C23.36299256 10.5329792 10.45877888 7.63040969 -2 2 C-1.34 1.34 -0.68 0.68 0 0 Z " fill="#7A686E" transform="translate(274,263)"/>
<path d="M0 0 C3.3 1.65 6.6 3.3 10 5 C10 5.66 10 6.32 10 7 C10.61875 6.79375 11.2375 6.5875 11.875 6.375 C12.57625 6.25125 13.2775 6.1275 14 6 C16 8 16 8 17 11 C13.88772805 11 11.05847848 10.54372951 8 10 C7.67 9.01 7.34 8.02 7 7 C5.98888907 10.04913228 5.98888907 10.04913228 7 13 C4.625 12.3125 4.625 12.3125 2 11 C1.67 10.154375 1.34 9.30875 1 8.4375 C0.67 7.633125 0.34 6.82875 0 6 C-2.54775306 5.10613836 -2.54775306 5.10613836 -5 5 C-4.67 4.34 -4.34 3.68 -4 3 C-3.01 3 -2.02 3 -1 3 C-0.67 2.01 -0.34 1.02 0 0 Z " fill="#6D5B5F" transform="translate(252,252)"/>
<path d="M0 0 C0.99 0 1.98 0 3 0 C3.33 0.99 3.66 1.98 4 3 C5.85812302 3.95731034 5.85812302 3.95731034 8.125 4.5625 C8.9396875 4.81257813 9.754375 5.06265625 10.59375 5.3203125 C12.59680658 5.88611095 14.60986702 6.41634492 16.625 6.9375 C21.72057824 8.54166352 26.47207041 10.84949461 30 15 C29.67 15.66 29.34 16.32 29 17 C28.2575 16.690625 27.515 16.38125 26.75 16.0625 C24.49307824 15.1905075 22.3549847 14.52332993 20 14 C20 13.34 20 12.68 20 12 C18.35 12 16.7 12 15 12 C15 11.34 15 10.68 15 10 C14.29875 9.731875 13.5975 9.46375 12.875 9.1875 C9.83537178 7.93200139 6.9405425 6.47027125 4 5 C3.01 4.67 2.02 4.34 1 4 C1 3.34 1 2.68 1 2 C0.34 1.67 -0.32 1.34 -1 1 C-0.67 0.67 -0.34 0.34 0 0 Z " fill="#887273" transform="translate(235,261)"/>
<path d="M0 0 C4.34754094 1.25760019 8.42551651 1.98682517 12.921875 2.375 C15.74299508 2.72490637 18.29352496 3.60808652 20.9375 4.625 C19.9475 5.12 19.9475 5.12 18.9375 5.625 C17.9475 5.295 16.9575 4.965 15.9375 4.625 C15.9375 5.285 15.9375 5.945 15.9375 6.625 C14.844375 6.439375 13.75125 6.25375 12.625 6.0625 C9.00125867 5.3671932 9.00125867 5.3671932 5.9375 6.625 C3.0546875 5.69921875 3.0546875 5.69921875 -0.1875 4.3125 C-1.26257813 3.86261719 -2.33765625 3.41273438 -3.4453125 2.94921875 C-6.0625 1.625 -6.0625 1.625 -7.0625 -0.375 C-4.25938414 -1.77655793 -2.9618778 -0.90814256 0 0 Z " fill="#281F21" transform="translate(281.0625,262.375)"/>
<path d="M0 0 C0.99 0.33 1.98 0.66 3 1 C2.67 2.32 2.34 3.64 2 5 C2.66 5 3.32 5 4 5 C3.67 5.66 3.34 6.32 3 7 C2.01 6.67 1.02 6.34 0 6 C0 7.65 0 9.3 0 11 C-3.3 10.01 -6.6 9.02 -10 8 C-10 9.32 -10 10.64 -10 12 C-9.01 12.33 -8.02 12.66 -7 13 C-10.20062687 14.60031344 -12.72271806 13.03173691 -16 12 C-15.67 11.01 -15.34 10.02 -15 9 C-14.34 9 -13.68 9 -13 9 C-12.67 9.33 -12.34 9.66 -12 10 C-11.67 9.01 -11.34 8.02 -11 7 C-9.35 6.67 -7.7 6.34 -6 6 C-6 5.34 -6 4.68 -6 4 C-3.1875 1.8125 -3.1875 1.8125 0 0 Z " fill="#836F71" transform="translate(282,236)"/>
<path d="M0 0 C0.99 0.66 1.98 1.32 3 2 C5.394792 2.58409561 7.53524626 3 10 3 C10.33 4.32 10.66 5.64 11 7 C7.55166676 9.05257931 5.68338409 10.0632763 1.625 9.6875 C0.75875 9.460625 -0.1075 9.23375 -1 9 C-0.67 8.01 -0.34 7.02 0 6 C-2.64 6 -5.28 6 -8 6 C-4.77208445 3.8480563 -3.71599191 3.79913557 0 4 C0 2.68 0 1.36 0 0 Z " fill="#654E59" transform="translate(339,259)"/>
<path d="M0 0 C0.90492188 0.2165625 0.90492188 0.2165625 1.828125 0.4375 C2.62734375 0.623125 3.4265625 0.80875 4.25 1 C5.03890625 1.185625 5.8278125 1.37125 6.640625 1.5625 C9.25556002 2.12154828 9.25556002 2.12154828 13 2 C12.67 1.34 12.34 0.68 12 0 C16.99911924 0.47610659 19.97832683 2.03162219 24 5 C23.01 6.32 22.02 7.64 21 9 C21 8.34 21 7.68 21 7 C20.01 7 19.02 7 18 7 C18 6.34 18 5.68 18 5 C16.865625 5.020625 15.73125 5.04125 14.5625 5.0625 C3.125 5.0625 3.125 5.0625 -1 3 C-0.67 2.01 -0.34 1.02 0 0 Z " fill="#664D54" transform="translate(285,238)"/>
<path d="M0 0 C8.25 0.33 16.5 0.66 25 1 C25 1.33 25 1.66 25 2 C24.21753906 2.06058594 23.43507813 2.12117188 22.62890625 2.18359375 C21.11103516 2.30927734 21.11103516 2.30927734 19.5625 2.4375 C18.55316406 2.51871094 17.54382813 2.59992188 16.50390625 2.68359375 C14.06359221 2.73211468 14.06359221 2.73211468 13 4 C10.40580146 4.10068807 7.84396198 4.1387005 5.25 4.125 C4.53328125 4.12886719 3.8165625 4.13273437 3.078125 4.13671875 C-0.740112 4.12969993 -4.28937214 3.92035258 -8 3 C-8 2.34 -8 1.68 -8 1 C-5.36 1 -2.72 1 0 1 C0 0.67 0 0.34 0 0 Z " fill="#0C0205" transform="translate(307,272)"/>
<path d="M0 0 C1.31602523 0.61754259 2.62773556 1.24428742 3.9375 1.875 C4.66839844 2.22304688 5.39929688 2.57109375 6.15234375 2.9296875 C8 4 8 4 9 6 C7.35 6 5.7 6 4 6 C3.67 6.99 3.34 7.98 3 9 C1.68 9 0.36 9 -1 9 C-1 7.68 -1 6.36 -1 5 C-1.99 5.33 -2.98 5.66 -4 6 C-4.33 5.34 -4.66 4.68 -5 4 C-3.35 2.68 -1.7 1.36 0 0 Z " fill="#7F696A" transform="translate(244,256)"/>
<path d="M0 0 C7.425 0.99 7.425 0.99 15 2 C14.34 2.66 13.68 3.32 13 4 C13.66 4.66 14.32 5.32 15 6 C14.01 6 13.02 6 12 6 C11.67 6.66 11.34 7.32 11 8 C7.04 6.35 3.08 4.7 -1 3 C-0.67 2.01 -0.34 1.02 0 0 Z " fill="#7E636C" transform="translate(288,241)"/>
<path d="M0 0 C0.33 0.66 0.66 1.32 1 2 C1.66 2.33 2.32 2.66 3 3 C2.8453125 4.11375 2.8453125 4.11375 2.6875 5.25 C2.7254586 8.25072867 2.7254586 8.25072867 5.5 10.3125 C6.7375 11.1478125 6.7375 11.1478125 8 12 C7.67 13.32 7.34 14.64 7 16 C4.00519083 16.8723412 1.36424089 17.10829766 -1.75 17.0625 C-2.54921875 17.05347656 -3.3484375 17.04445312 -4.171875 17.03515625 C-4.77515625 17.02355469 -5.3784375 17.01195312 -6 17 C-6 16.67 -6 16.34 -6 16 C-4.01432292 15.77213542 -2.02864583 15.54427083 -0.04296875 15.31640625 C2.19396393 15.02829265 2.19396393 15.02829265 5 14 C4.67 13.01 4.34 12.02 4 11 C3.01 11 2.02 11 1 11 C1 10.01 1 9.02 1 8 C0.01 7.67 -0.98 7.34 -2 7 C-1.34 4.69 -0.68 2.38 0 0 Z " fill="#86696D" transform="translate(276,173)"/>
<path d="M0 0 C2.96249418 1.11093532 5.37470105 2.9998007 8 4.75 C8 5.74 8 6.73 8 7.75 C5.03 7.75 2.06 7.75 -1 7.75 C-1.33 6.43 -1.66 5.11 -2 3.75 C-2.99 3.09 -3.98 2.43 -5 1.75 C-2 -0.25 -2 -0.25 0 0 Z " fill="#1F1316" transform="translate(288,219.25)"/>
<path d="M0 0 C2.46800047 1.15173355 4.04783565 2.04783565 6 4 C7.98536627 4.70905938 9.98910922 5.36694179 12 6 C14.67574867 6.97693701 17.33656158 7.98973025 20 9 C16.37998972 10.30014454 14.21373865 9.63877246 10.625 8.4375 C6.06909228 7.08353546 3.38745514 6.74698249 -1 9 C-1.66 7.68 -2.32 6.36 -3 5 C-0.525 5.495 -0.525 5.495 2 6 C1.34 4.02 0.68 2.04 0 0 Z " fill="#957D7F" transform="translate(271,255)"/>
<path d="M0 0 C0.99 0.33 1.98 0.66 3 1 C2.67 1.99 2.34 2.98 2 4 C2.99 4.99 3.98 5.98 5 7 C2.77691098 7.49886311 0.55323107 7.99457178 -1.671875 8.484375 C-3.42972014 8.87369641 -5.18443109 9.27720728 -6.9375 9.6875 C-9 10 -9 10 -11 9 C-7.4912812 5.90407165 -4.50802601 4.25805377 0 3 C0 2.01 0 1.02 0 0 Z " fill="#6C5456" transform="translate(285,159)"/>
<path d="M0 0 C2.64 1.98 5.28 3.96 8 6 C7.67 6.99 7.34 7.98 7 9 C5 9.66666667 3 10.33333333 1 11 C-0.58144783 8.48828873 -1.05266163 7.36863138 -0.625 4.375 C-0.41875 3.59125 -0.2125 2.8075 0 2 C0 1.34 0 0.68 0 0 Z " fill="#4C343B" transform="translate(290,147)"/>
<path d="M0 0 C0.8353125 0.19916016 0.8353125 0.19916016 1.6875 0.40234375 C6.7858701 1.58220305 11.79787441 2.43249539 17 3 C17 3.66 17 4.32 17 5 C3.57142857 5.28571429 3.57142857 5.28571429 -1 3 C-0.67 2.01 -0.34 1.02 0 0 Z " fill="#1A080D" transform="translate(285,238)"/>
<path d="M0 0 C2 0 2 0 4.5625 2.375 C7 5 7 5 8 7 C7.01 7.33 6.02 7.66 5 8 C4.34 8.66 3.68 9.32 3 10 C2.34 9.34 1.68 8.68 1 8 C1 7.34 1 6.68 1 6 C0.34 5.34 -0.32 4.68 -1 4 C-0.625 1.875 -0.625 1.875 0 0 Z " fill="#A48588" transform="translate(243,160)"/>
<path d="M0 0 C2.3431213 0.25561323 4.67843403 0.59270772 7 1 C7.33 1.66 7.66 2.32 8 3 C6.453125 3.12375 6.453125 3.12375 4.875 3.25 C-0.1891877 4.23016536 -3.38406731 6.38406731 -7 10 C-7.66 9.34 -8.32 8.68 -9 8 C-8.43410156 7.59007812 -7.86820312 7.18015625 -7.28515625 6.7578125 C-6.18494141 5.94957031 -6.18494141 5.94957031 -5.0625 5.125 C-4.33160156 4.59132812 -3.60070312 4.05765625 -2.84765625 3.5078125 C-0.88901765 2.11987896 -0.88901765 2.11987896 0 0 Z " fill="#B09093" transform="translate(281,145)"/>
<path d="M0 0 C0.33 0.66 0.66 1.32 1 2 C1.99 2.33 2.98 2.66 4 3 C4 6.3 4 9.6 4 13 C3.01 12.67 2.02 12.34 1 12 C1.04125 11.278125 1.0825 10.55625 1.125 9.8125 C0.99072755 6.79136988 0.12528758 4.77570937 -1 2 C-0.67 1.34 -0.34 0.68 0 0 Z " fill="#948082" transform="translate(273,205)"/>
<path d="M0 0 C0.96808594 -0.01417969 1.93617188 -0.02835938 2.93359375 -0.04296875 C5.5625 0.1875 5.5625 0.1875 8.5625 2.1875 C7.386875 2.166875 6.21125 2.14625 5 2.125 C1.08836533 2.11802739 -2.58247944 2.54499657 -6.4375 3.1875 C-6.7675 4.1775 -7.0975 5.1675 -7.4375 6.1875 C-7.7675 5.5275 -8.0975 4.8675 -8.4375 4.1875 C-8.1075 3.1975 -7.7775 2.2075 -7.4375 1.1875 C-4.84996844 -0.10626578 -2.88791015 0.01917603 0 0 Z " fill="#72585C" transform="translate(278.4375,195.8125)"/>
<path d="M0 0 C3.03875554 3.03875554 3.45533286 3.53698243 3.9375 7.5 C4.04964844 8.2734375 4.16179687 9.046875 4.27734375 9.84375 C4.18582031 10.5553125 4.09429687 11.266875 4 12 C2.68 12.99 1.36 13.98 0 15 C0 10.05 0 5.1 0 0 Z " fill="#7B6471" transform="translate(319,153)"/>
<path d="M0 0 C4.95 1.98 9.9 3.96 15 6 C10.22669942 7.19332515 8.71737412 6.39412339 4.25 4.5625 C3.07953125 4.08941406 1.9090625 3.61632812 0.703125 3.12890625 C-0.18890625 2.75636719 -1.0809375 2.38382812 -2 2 C-1.34 1.34 -0.68 0.68 0 0 Z " fill="#C4ABB5" transform="translate(274,263)"/>
<path d="M0 0 C0.99 0 1.98 0 3 0 C3 0.66 3 1.32 3 2 C3.61875 1.79375 4.2375 1.5875 4.875 1.375 C5.57625 1.25125 6.2775 1.1275 7 1 C9 3 9 3 10 6 C6.88772805 6 4.05847848 5.54372951 1 5 C0.67 3.35 0.34 1.7 0 0 Z " fill="#826769" transform="translate(259,257)"/>
<path d="M0 0 C0.33 0.99 0.66 1.98 1 3 C1.99 2.67 2.98 2.34 4 2 C4.33 2.99 4.66 3.98 5 5 C5.99 5.33 6.98 5.66 8 6 C8 6.66 8 7.32 8 8 C5.29068581 7.84518205 3.53415961 7.51827919 1.5546875 5.59765625 C0.32320358 4.10228292 -0.8429837 2.5537076 -2 1 C-1.34 0.67 -0.68 0.34 0 0 Z " fill="#5F4B4D" transform="translate(255,179)"/>
<path d="M0 0 C0.66 0.33 1.32 0.66 2 1 C2.484375 3.765625 2.484375 3.765625 2.75 7.25 C2.84796875 8.38953125 2.9459375 9.5290625 3.046875 10.703125 C2.99981003 14.01336143 2.44061089 16.05228849 1 19 C0.34 18.34 -0.32 17.68 -1 17 C-0.70740407 15.65713868 -0.36295539 14.3255762 0 13 C0.06790675 10.75092848 0.08499984 8.49998395 0.0625 6.25 C0.05347656 5.07953125 0.04445313 3.9090625 0.03515625 2.703125 C0.02355469 1.81109375 0.01195312 0.9190625 0 0 Z " fill="#B99BA2" transform="translate(287,319)"/>
<path d="M0 0 C0.928125 0.474375 1.85625 0.94875 2.8125 1.4375 C5.91196237 3.04488875 5.91196237 3.04488875 9 4 C9.66 4.66 10.32 5.32 11 6 C6.545 6.495 6.545 6.495 2 7 C1.67 5.68 1.34 4.36 1 3 C0.34 2.67 -0.32 2.34 -1 2 C-0.67 1.34 -0.34 0.68 0 0 Z " fill="#DABFC6" transform="translate(277,218)"/>
<path d="M0 0 C2.20700414 0.96556431 3.42932829 2.06872753 5 3.875 C3.35 4.535 1.7 5.195 0 5.875 C0 5.215 0 4.555 0 3.875 C-1.65 3.545 -3.3 3.215 -5 2.875 C-2.57142857 -0.16071429 -2.57142857 -0.16071429 0 0 Z " fill="#403237" transform="translate(288,219.125)"/>
<path d="M0 0 C1.65 0 3.3 0 5 0 C1.17819158 4.4008703 -1.47371099 5.80805531 -7 7 C-7 6.01 -7 5.02 -7 4 C-3.535 3.505 -3.535 3.505 0 3 C0 2.01 0 1.02 0 0 Z " fill="#624A53" transform="translate(308,176)"/>
<path d="M0 0 C0.33 0.66 0.66 1.32 1 2 C1.66 2.33 2.32 2.66 3 3 C2.979375 3.78375 2.95875 4.5675 2.9375 5.375 C2.81315937 7.98114961 2.81315937 7.98114961 4 10 C3.01 10.33 2.02 10.66 1 11 C1 10.01 1 9.02 1 8 C0.01 7.67 -0.98 7.34 -2 7 C-1.34 4.69 -0.68 2.38 0 0 Z " fill="#644D50" transform="translate(276,173)"/>
<path d="M0 0 C2.64 0 5.28 0 8 0 C8.33 0.99 8.66 1.98 9 3 C8.01 3.495 8.01 3.495 7 4 C7 3.34 7 2.68 7 2 C4.36 2.66 1.72 3.32 -1 4 C-0.67 2.68 -0.34 1.36 0 0 Z " fill="#786669" transform="translate(281,156)"/>
<path d="M0 0 C0.99 0 1.98 0 3 0 C3.33 0.99 3.66 1.98 4 3 C7.51190809 4.22969878 7.51190809 4.22969878 11 5 C10.67 5.66 10.34 6.32 10 7 C6.85262818 6.30058404 3.97411124 5.23921302 1 4 C1 3.34 1 2.68 1 2 C0.34 1.67 -0.32 1.34 -1 1 C-0.67 0.67 -0.34 0.34 0 0 Z " fill="#CCABAA" transform="translate(235,261)"/>
<path d="M0 0 C4.72224516 1.53472968 9.35855331 3.23945126 14 5 C10.21180727 6.43410153 7.93478721 5.51009497 4.25 4.0625 C2.77273438 3.49208984 2.77273438 3.49208984 1.265625 2.91015625 C0.51796875 2.60980469 -0.2296875 2.30945313 -1 2 C-0.67 1.34 -0.34 0.68 0 0 Z " fill="#C0AFB1" transform="translate(277,259)"/>
<path d="M0 0 C2.31 0.33 4.62 0.66 7 1 C6.34 1.66 5.68 2.32 5 3 C5.99 3.99 6.98 4.98 8 6 C4.65626525 5.44271087 1.96687001 4.64826111 -1 3 C-0.67 2.01 -0.34 1.02 0 0 Z " fill="#BAA0A9" transform="translate(288,241)"/>
<path d="M0 0 C0.99 0.33 1.98 0.66 3 1 C2.67 2.32 2.34 3.64 2 5 C2.66 5 3.32 5 4 5 C3.67 5.66 3.34 6.32 3 7 C0.69 6.01 -1.62 5.02 -4 4 C-2.68 2.68 -1.36 1.36 0 0 Z " fill="#B79AA4" transform="translate(282,236)"/>
<path d="M0 0 C1.98 0.495 1.98 0.495 4 1 C4 1.66 4 2.32 4 3 C6.97 3 9.94 3 13 3 C13 3.33 13 3.66 13 4 C8.38 4 3.76 4 -1 4 C-0.67 2.68 -0.34 1.36 0 0 Z " fill="#B899AA" transform="translate(326,255)"/>
<path d="M0 0 C0.33 0.99 0.66 1.98 1 3 C-2.13498292 4.85776765 -4.37471432 5.20140476 -8 5 C-3.375 0 -3.375 0 0 0 Z " fill="#91767A" transform="translate(282,164)"/>
<path d="M0 0 C2.625 0.375 2.625 0.375 5 1 C5.33 1.99 5.66 2.98 6 4 C5.01 4.33 4.02 4.66 3 5 C0.3125 3.5625 0.3125 3.5625 -2 2 C-1.34 1.34 -0.68 0.68 0 0 Z " fill="#1A0D0E" transform="translate(276,261)"/>
<path d="M0 0 C1.65 0.33 3.3 0.66 5 1 C5 1.99 5 2.98 5 4 C4.01 4 3.02 4 2 4 C1.67 4.66 1.34 5.32 1 6 C0.34 5.34 -0.32 4.68 -1 4 C-0.625 1.875 -0.625 1.875 0 0 Z " fill="#977B7F" transform="translate(261,251)"/>
<path d="M0 0 C0.99 0 1.98 0 3 0 C2.67 1.65 2.34 3.3 2 5 C0.68 5 -0.64 5 -2 5 C-1.125 1.125 -1.125 1.125 0 0 Z " fill="#36292A" transform="translate(276,168)"/>
<path d="M0 0 C0.99 0.33 1.98 0.66 3 1 C2.67 1.99 2.34 2.98 2 4 C0 4.66666667 -2 5.33333333 -4 6 C-4 5.01 -4 4.02 -4 3 C-2.1875 1.25 -2.1875 1.25 0 0 Z " fill="#E8BCCC" transform="translate(295,152)"/>
<path d="M0 0 C4.55384615 -0.36923077 4.55384615 -0.36923077 6.8125 1.5 C7.204375 1.995 7.59625 2.49 8 3 C7.67 3.66 7.34 4.32 7 5 C3.34683329 3.75023244 2.21934164 3.32901247 0 0 Z " fill="#776264" transform="translate(257,273)"/>
<path d="M0 0 C4.75 0.75 4.75 0.75 7 3 C6.67 3.99 6.34 4.98 6 6 C5.67 5.34 5.34 4.68 5 4 C3.35636866 3.27840576 1.68949614 2.60648579 0 2 C0 1.34 0 0.68 0 0 Z " fill="#A98B8D" transform="translate(245,267)"/>
<path d="M0 0 C0 0.66 0 1.32 0 2 C1.32 2.33 2.64 2.66 4 3 C1.69 3.33 -0.62 3.66 -3 4 C-3.33 3.01 -3.66 2.02 -4 1 C-2 0 -2 0 0 0 Z " fill="#785D62" transform="translate(295,182)"/>
<path d="M0 0 C0.66 0.66 1.32 1.32 2 2 C1.40138258 4.35171131 0.73075648 6.6859378 0 9 C-0.99 9.495 -0.99 9.495 -2 10 C-2.17942163 6.05272412 -2.09350689 3.4019487 0 0 Z " fill="#B395A3" transform="translate(293,317)"/>
<path d="M0 0 C2 2 2 2 2.125 5.125 C2.08375 6.07375 2.0425 7.0225 2 8 C1.01 8.33 0.02 8.66 -1 9 C-1.33 7.68 -1.66 6.36 -2 5 C-1.34 5 -0.68 5 0 5 C0 3.35 0 1.7 0 0 Z " fill="#F1C9DC" transform="translate(287,303)"/>
<path d="M0 0 C2.97 0.495 2.97 0.495 6 1 C4.75 2.5625 4.75 2.5625 3 4 C0.8125 3.6875 0.8125 3.6875 -1 3 C-0.67 2.01 -0.34 1.02 0 0 Z " fill="#483137" transform="translate(285,238)"/>
<path d="" fill="#FFFFFF" transform="translate(0,0)"/>
<path d="M0 0 C2 1 2 1 2 1 Z " fill="#FFBFEA" transform="translate(289,237)"/>
<path d="M0 0 C2 1 2 1 2 1 Z " fill="#FFB8F1" transform="translate(287,236)"/>
<path d="" fill="#FFD4FF" transform="translate(0,0)"/>
<path d="M0 0 C2 1 2 1 2 1 Z " fill="#FFD4FF" transform="translate(280,161)"/>
<path d="" fill="#FFFFFF" transform="translate(0,0)"/>
<path d="" fill="#FFBFBF" transform="translate(0,0)"/>
<path d="" fill="#FF80FF" transform="translate(0,0)"/>
<path d="" fill="#FFAAFF" transform="translate(0,0)"/>
<path d="" fill="#FFFFFF" transform="translate(0,0)"/>
<path d="" fill="#FFBFBF" transform="translate(0,0)"/>
<path d="" fill="#FFFFFF" transform="translate(0,0)"/>
<path d="" fill="#FFCCCC" transform="translate(0,0)"/>
<path d="" fill="#FFAAAA" transform="translate(0,0)"/>
<path d="" fill="#E8D1D1" transform="translate(0,0)"/>
<path d="" fill="#FFFFFF" transform="translate(0,0)"/>
<path d="" fill="#FFFFFF" transform="translate(0,0)"/>
<path d="" fill="#FFD5D5" transform="translate(0,0)"/>
<path d="" fill="#FFAAFF" transform="translate(0,0)"/>
<path d="" fill="#FFFFFF" transform="translate(0,0)"/>
<path d="" fill="#FFDBDB" transform="translate(0,0)"/>
<path d="" fill="#FFBFBF" transform="translate(0,0)"/>
<path d="" fill="#FFBFBF" transform="translate(0,0)"/>
<path d="" fill="#FFFFFF" transform="translate(0,0)"/>
<path d="" fill="#FFAAFF" transform="translate(0,0)"/>
<path d="" fill="#EDB6C8" transform="translate(0,0)"/>
<path d="" fill="#FFD5D5" transform="translate(0,0)"/>
<path d="" fill="#FFD5D5" transform="translate(0,0)"/>
<path d="" fill="#FFFFFF" transform="translate(0,0)"/>
<path d="" fill="#FFFFFF" transform="translate(0,0)"/>
<path d="" fill="#FFFFFF" transform="translate(0,0)"/>
<path d="" fill="#FFFFFF" transform="translate(0,0)"/>
<path d="" fill="#FFFFFF" transform="translate(0,0)"/>
<path d="" fill="#FFFFFF" transform="translate(0,0)"/>
<path d="" fill="#FFCCCC" transform="translate(0,0)"/>
<path d="" fill="#FFFFFF" transform="translate(0,0)"/>
<path d="" fill="#FFD5D5" transform="translate(0,0)"/>
<path d="" fill="#FFBFBF" transform="translate(0,0)"/>
<path d="" fill="#FFBFBF" transform="translate(0,0)"/>
<path d="" fill="#FFFFFF" transform="translate(0,0)"/>
<path d="" fill="#FFCCCC" transform="translate(0,0)"/>
<path d="" fill="#FFFFFF" transform="translate(0,0)"/>
<path d="" fill="#FFFFFF" transform="translate(0,0)"/>
<path d="" fill="#FFBFDF" transform="translate(0,0)"/>
<path d="" fill="#FFFFFF" transform="translate(0,0)"/>
<path d="" fill="#FFFFFF" transform="translate(0,0)"/>
<path d="" fill="#FFBFBF" transform="translate(0,0)"/>
<path d="" fill="#FFFFFF" transform="translate(0,0)"/>
<path d="" fill="#FFAAFF" transform="translate(0,0)"/>
<path d="" fill="#FFFFFF" transform="translate(0,0)"/>
<path d="" fill="#FFFFFF" transform="translate(0,0)"/>
<path d="" fill="#FFFFFF" transform="translate(0,0)"/>
<path d="" fill="#FFAAD5" transform="translate(0,0)"/>
<path d="" fill="#FFBFBF" transform="translate(0,0)"/>
<path d="" fill="#FFCCCC" transform="translate(0,0)"/>
<path d="" fill="#FFFFFF" transform="translate(0,0)"/>
<path d="" fill="#FFAAAA" transform="translate(0,0)"/>
<path d="" fill="#FFCCCC" transform="translate(0,0)"/>
<path d="" fill="#FFBFBF" transform="translate(0,0)"/>
<path d="" fill="#FFBFBF" transform="translate(0,0)"/>
<path d="" fill="#E6CCCC" transform="translate(0,0)"/>
<path d="" fill="#FFFFFF" transform="translate(0,0)"/>
<path d="" fill="#FFC6C6" transform="translate(0,0)"/>
<path d="" fill="#FFFFFF" transform="translate(0,0)"/>
<path d="" fill="#FFFFFF" transform="translate(0,0)"/>
<path d="" fill="#FFFFFF" transform="translate(0,0)"/>
<path d="" fill="#FFAAAA" transform="translate(0,0)"/>
<path d="" fill="#FFBFBF" transform="translate(0,0)"/>
</svg>
